---
title: StudentAcademicRecord-StudentTranscript
config:
  layout: elk
---
erDiagram
    Student {
        string StudentUniqueId "I"
        common Name "R"
        common OtherName "OC"
        common BirthData "R"
        reference Person "O"
    }
    StudentAcademicRecord {
        reference Student "I"
        reference EducationOrganization "I"
        enumeration SchoolYear "I"
        descriptor Term "I"
        common AcademicHonor "OC"
        common ClassRanking "O"
        common CumulativeAttemptedCredits "O"
        common CumulativeEarnedCredits "O"
        common SessionAttemptedCredits "O"
        common SessionEarnedCredits "O"
        common Diploma "OC"
        common GradePointAverage "OC"
        date ProjectedGraduationDate "O"
        common Recognition "OC"
        reference ReportCard "OC"
    }
    CourseTranscript {
        descriptor CourseAttemptResult "I"
        common AttemptedCredits "O"
        common EarnedCredits "O"
        common EarnedAdditionalCredits "OC"
        descriptor WhenTakenGradeLevel "O"
        descriptor MethodCreditEarned "O"
        string FinalLetterGradeEarned "O"
        decimal FinalNumericGradeEarned "O"
        descriptor CourseRepeatCode "O"
        reference Course "I"
        reference StudentAcademicRecord "I"
        reference Section "OC"
        reference ResponsibleTeacherStaff "O"
        reference CourseProgram "OC"
        string CourseTitle "O"
        string AlternativeCourseTitle "O"
        reference ExternalEducationOrganization "O"
        string ExternalEducationOrganizationNameOfInstitution "O"
        common AlternativeCourseIdentificationCode "OC"
        string AssigningOrganizationIdentificationCode "O"
        string CourseCatalogURL "O"
        descriptor CreditCategory "OC"
        descriptor AcademicSubject "OC"
        common PartialCourseTranscriptAwards "OC"
    }
    Course {
        string CourseCode "I"
        string CourseTitle "R"
        integer NumberOfParts "R"
        common CourseIdentificationCode "RC"
        descriptor CourseLevelCharacteristic "OC"
        descriptor OfferedGradeLevel "OC"
        descriptor AcademicSubject "OC"
        string CourseDescription "O"
        integer TimeRequiredForCompletion "O"
        date DateCourseAdopted "O"
        bool HighSchoolCourseRequirement "O"
        descriptor CourseGPAApplicability "O"
        descriptor CourseDefinedBy "O"
        common MinimumAvailableCredits "O"
        common MaximumAvailableCredits "O"
        descriptor CareerPathway "O"
        descriptor CompetencyLevel "OC"
        reference EducationOrganization "I"
        reference LearningStandard "OC"
        integer MaxCompletionsForCredit "O"
    }
    EducationOrganization {
        integer EducationOrganizationId "I"
        string NameOfInstitution "R"
        string ShortNameOfInstitution "O"
        descriptor EducationOrganizationCategory "RC"
        common Address "OC"
        common InternationalAddress "OC"
        common InstitutionTelephone "OC"
        string WebSite "O"
        descriptor OperationalStatus "O"
        common EducationOrganizationIndicator "OC"
    }
    CourseTranscript }o--|| StudentAcademicRecord : "HasAssociated"
    CourseTranscript }o--o| EducationOrganization : "HasAssociatedExternal"
    CourseTranscript }o--|| Course : "HasAssociated"
    StudentAcademicRecord }o--|| Student : "HasAssociated"
    StudentAcademicRecord }o--|| EducationOrganization : "HasAssociated"
    Course }o--|| EducationOrganization : "HasAssociated"