---
title: SpecialEducation
config:
  layout: elk
---
erDiagram
    Student {
        string StudentUniqueId "I"
        common Name "R"
        common OtherName "OC"
        common BirthData "R"
        reference Person "O"
    }
    Staff {
        string StaffUniqueId "I"
        common Name "R"
        common OtherName "OC"
        date BirthDate "O"
        descriptor HighestCompletedLevelOfEducation "O"
        decimal YearsOfPriorProfessionalExperience "O"
        decimal YearsOfPriorTeachingExperience "O"
        string LoginId "O"
        bool HighlyQualifiedTeacher "O"
        common Recognition "OC"
        reference Credential "OC"
        reference Person "O"
        descriptor HighlyQualifiedAcademicSubject "OC"
        common EducatorResearch "O"
        reference EducatorPreparationProgram "OC"
        reference OpenStaffPosition "O"
    }
    Program {
        reference EducationOrganization "I"
        string ProgramId "O"
        string ProgramName "I"
        descriptor ProgramType "I"
        descriptor ProgramCharacteristic "OC"
        descriptor ProgramSponsor "OC"
        reference LearningStandard "OC"
    }
    Section {
        string SectionIdentifier "I"
        descriptor SectionType "O"
        integer SequenceOfCourse "O"
        descriptor EducationalEnvironment "O"
        descriptor MediumOfInstruction "O"
        descriptor PopulationServed "O"
        common AvailableCredits "O"
        descriptor SectionCharacteristic "OC"
        descriptor InstructionLanguage "O"
        reference CourseOffering "I"
        reference LocationSchool "O"
        reference Location "O"
        reference ClassPeriod "OC"
        reference Program "OC"
        descriptor CourseLevelCharacteristic "OC"
        descriptor OfferedGradeLevel "OC"
        bool OfficialAttendancePeriod "O"
        string SectionName "O"
    }
    EducationOrganization {
        integer EducationOrganizationId "I"
        string NameOfInstitution "R"
        string ShortNameOfInstitution "O"
        descriptor EducationOrganizationCategory "RC"
        common Address "OC"
        common InternationalAddress "OC"
        common InstitutionTelephone "OC"
        string WebSite "O"
        descriptor OperationalStatus "O"
        common EducationOrganizationIndicator "OC"
    }
    School {
        integer SchoolId "I"
        descriptor GradeLevel "RC"
        descriptor SchoolCategory "OC"
        descriptor SchoolType "O"
        descriptor CharterStatus "O"
        descriptor TitleIPartASchoolDesignation "O"
        descriptor MagnetSpecialProgramEmphasisSchool "O"
        descriptor AdministrativeFundingControl "O"
        descriptor InternetAccess "O"
        reference LocalEducationAgency "O"
        descriptor CharterApprovalAgencyType "O"
        enumeration CharterApprovalSchoolYear "O"
        descriptor FederalLocaleCode "O"
        reference PostSecondaryInstitution "O"
        bool ImprovingSchool "O"
        descriptor AccreditationStatus "O"
    }
    GeneralStudentProgramAssociation {
        reference Student "I"
        reference Program "I"
        date BeginDate "I"
        date EndDate "O"
        descriptor ReasonExited "O"
        reference EducationOrganization "I"
        bool ServedOutsideOfRegularSession "O"
        common ProgramParticipationStatus "OC"
    }
    StudentSpecialEducationProgramAssociation {
        bool IdeaEligibility "O"
        descriptor SpecialEducationSetting "O"
        common ServiceProvider "OC"
        decimal SpecialEducationHoursPerWeek "O"
        decimal SchoolHoursPerWeek "O"
        bool ShortenedSchoolDayIndicator "O"
        decimal ReductionInHoursPerWeekComparedToPeers "O"
        bool MultiplyDisabled "O"
        bool MedicallyFragile "O"
        date IEPLastEvaluationDate "O"
        date IEPLastReviewDate "O"
        date IEPEvaluationDueDate "O"
        date IEPReviewDueDate "O"
        date IEPBeginDate "O"
        date IEPEndDate "O"
        common Disability "OC"
        common SpecialEducationProgramService "OC"
        date SpecialEducationExitDate "O"
        descriptor SpecialEducationExitReason "O"
        string SpecialEducationExitExplained "O"
    }
    StudentSectionAssociation {
        reference Student "I"
        reference Section "I"
        date BeginDate "I"
        date EndDate "O"
        bool HomeroomIndicator "O"
        descriptor RepeatIdentifier "O"
        bool TeacherStudentDataLinkExclusion "O"
        descriptor AttemptStatus "O"
        reference Program "OC"
        common DualCredit "O"
    }
    StaffProgramAssociation {
        reference Staff "I"
        reference Program "I"
        date BeginDate "I"
        date EndDate "O"
        bool StudentRecordAccess "O"
    }
    StaffSectionAssociation {
        reference Staff "I"
        reference Section "I"
        descriptor ClassroomPosition "R"
        date BeginDate "I"
        date EndDate "O"
        bool HighlyQualifiedTeacher "O"
        bool TeacherStudentDataLinkExclusion "O"
        percent PercentageContribution "O"
    }
    RestraintEvent {
        string RestraintEventIdentifier "I"
        date EventDate "R"
        descriptor EducationalEnvironment "O"
        descriptor RestraintEventReason "OC"
        reference Student "I"
        reference Program "OC"
        reference School "I"
        reference DisciplineIncident "O"
    }
    StudentProgramAttendanceEvent {
        common AttendanceEvent "R"
        reference Student "I"
        reference EducationOrganization "I"
        reference Program "I"
        integer ProgramAttendanceDuration "O"
    }
    StudentSectionAttendanceEvent {
        common AttendanceEvent "R"
        reference Student "I"
        reference Section "I"
        integer SectionAttendanceDuration "O"
        time ArrivalTime "O"
        time DepartureTime "O"
        reference ClassPeriod "OC"
    }
    StudentSchoolAttendanceEvent {
        common AttendanceEvent "R"
        reference Student "I"
        reference School "I"
        reference Session "I"
        integer SchoolAttendanceDuration "O"
        time ArrivalTime "O"
        time DepartureTime "O"
    }
    Student }o--o{ Program : "HasAssociated"
    StudentSchoolAttendanceEvent }o--|| School : "HasAssociated"
    StudentSchoolAttendanceEvent }o--|| Student : "HasAssociated"
    RestraintEvent }o--|| School : "HasAssociated"
    RestraintEvent }o--|| Student : "HasAssociated"
    RestraintEvent }o--o{ Program : "HasAssociated"
    StudentProgramAttendanceEvent }o--|| Student : "HasAssociated"
    StudentProgramAttendanceEvent }o--|| Program : "HasAssociated"
    Program }o--|| EducationOrganization : "HasAssociated"
    Student }o--o{ Section : "HasAssociated"
    StudentSectionAttendanceEvent }o--|| Student : "HasAssociated"
    StudentSectionAttendanceEvent }o--|| Section : "HasAssociated"
    Staff }o--o{ Section : "HasAssociated"
    Staff }o--o{ Program : "HasAssociated"
    GeneralStudentProgramAssociation }o--|| EducationOrganization : "HasAssociated"
    GeneralStudentProgramAssociation }o..|| Program : "HasAssociated"
    GeneralStudentProgramAssociation }o..|| Student : "HasAssociated"
    StudentSpecialEducationProgramAssociation }o..|| Program : "HasAssociated"
    StudentSpecialEducationProgramAssociation }o..|| Student : "HasAssociated"
    StudentSectionAssociation }o..|| Student : "HasAssociated"
    StudentSectionAssociation }o..|| Section : "HasAssociated"
    StaffProgramAssociation }o..|| Staff : "HasAssociated"
    StaffProgramAssociation }o..|| Program : "HasAssociated"
    StaffSectionAssociation }o..|| Staff : "HasAssociated"
    StaffSectionAssociation }o..|| Section : "HasAssociated"

